<svg width="36" height="33" viewBox="0 0 36 33" fill="none" xmlns="http://www.w3.org/2000/svg">
<path d="M21.7258 25.2928C21.7258 26.7998 22.1364 28.2731 22.9055 29.5261C23.6747 30.7792 24.768 31.7559 26.047 32.3326C27.3261 32.9093 28.7336 33.0602 30.0915 32.7662C31.4493 32.4722 32.6966 31.7465 33.6756 30.6808C34.6545 29.6152 35.3212 28.2574 35.5913 26.7793C35.8614 25.3012 35.7228 23.7691 35.193 22.3768C34.6632 20.9844 33.766 19.7944 32.6148 18.9571C31.4637 18.1198 30.1103 17.6729 28.7258 17.6729C26.8693 17.6729 25.0888 18.4757 23.7761 19.9047C22.4633 21.3337 21.7258 23.2719 21.7258 25.2928ZM33.7258 25.2928C33.7258 26.3693 33.4326 27.4216 32.8832 28.3166C32.3338 29.2117 31.5529 29.9093 30.6392 30.3212C29.7256 30.7332 28.7203 30.841 27.7504 30.631C26.7805 30.4209 25.8896 29.9026 25.1903 29.1414C24.491 28.3802 24.0148 27.4104 23.8219 26.3546C23.629 25.2988 23.728 24.2045 24.1064 23.2099C24.4849 22.2154 25.1257 21.3653 25.948 20.7673C26.7702 20.1692 27.7369 19.85 28.7258 19.85C30.0519 19.85 31.3237 20.4234 32.2614 21.4442C33.199 22.4649 33.7258 23.8493 33.7258 25.2928Z" fill="#BFBFBF"/>
<path d="M27.266 22.0271C27.1791 21.9113 27.0711 21.8163 26.949 21.7479C26.8268 21.6795 26.693 21.6393 26.5559 21.6297C26.4188 21.6201 26.2814 21.6413 26.1522 21.6921C26.023 21.7429 25.9048 21.8221 25.8049 21.9248C25.7051 22.0274 25.6257 22.1514 25.5719 22.289C25.518 22.4265 25.4907 22.5747 25.4917 22.7242C25.4928 22.8737 25.5221 23.0214 25.5779 23.1581C25.6337 23.2947 25.7147 23.4174 25.816 23.5184L27.466 25.4343L25.816 27.3501C25.6844 27.5045 25.5968 27.6972 25.5638 27.9047C25.5308 28.1122 25.5538 28.3257 25.63 28.5192C25.7062 28.7128 25.8323 28.8782 25.9932 28.9953C26.154 29.1123 26.3425 29.1761 26.536 29.1789C26.6724 29.1798 26.8075 29.1504 26.933 29.0923C27.0586 29.0343 27.1719 28.9489 27.266 28.8415L28.846 27.0236L30.426 28.8415C30.5189 28.9476 30.6306 29.0322 30.7543 29.0902C30.8781 29.1482 31.0113 29.1783 31.146 29.1789C31.3403 29.1782 31.5302 29.1159 31.6925 28.9997C31.8548 28.8834 31.9825 28.7182 32.0599 28.5242C32.1374 28.3302 32.1612 28.1158 32.1285 27.9073C32.0959 27.6988 32.0081 27.5052 31.876 27.3501L30.216 25.4016L31.876 23.4858C32.0073 23.2703 32.0639 23.011 32.0355 22.7542C32.0072 22.4975 31.8958 22.2601 31.7214 22.0846C31.5469 21.9091 31.3207 21.8069 31.0834 21.7964C30.846 21.7859 30.613 21.8677 30.426 22.0271L28.846 23.845L27.266 22.0271Z" fill="#BFBFBF"/>
<path d="M17.726 25.8697C18.3087 25.8681 18.8905 25.8171 19.466 25.7173C19.5973 25.6959 19.7235 25.6465 19.8372 25.572C19.951 25.4975 20.0502 25.3993 20.1292 25.283C20.2081 25.1668 20.2652 25.0348 20.2973 24.8945C20.3293 24.7542 20.3357 24.6084 20.316 24.4655C20.2963 24.3225 20.2509 24.1852 20.1825 24.0613C20.114 23.9375 20.0238 23.8295 19.917 23.7436C19.8102 23.6577 19.6889 23.5955 19.5601 23.5606C19.4312 23.5257 19.2973 23.5188 19.166 23.5402C18.6893 23.6184 18.208 23.6584 17.726 23.66C15.8445 23.6729 14.002 23.0774 12.4318 21.949C10.8617 20.8206 9.63471 19.21 8.90646 17.3216C8.17822 15.4332 7.98151 13.3519 8.34126 11.3416C8.70102 9.33129 9.60104 7.48255 10.9272 6.02976C12.2534 4.57697 13.946 3.58556 15.7904 3.18122C17.6349 2.77687 19.5481 2.97782 21.2875 3.75856C23.0269 4.53931 24.5141 5.8647 25.5607 7.5667C26.6072 9.26869 27.1659 11.2706 27.166 13.3187C27.1682 13.8143 27.1348 14.3093 27.066 14.7991C27.0289 15.085 27.0976 15.3751 27.257 15.6058C27.4164 15.8364 27.6534 15.9888 27.916 16.0292C28.1785 16.0696 28.4451 15.9948 28.657 15.8213C28.8689 15.6478 29.0088 15.3897 29.046 15.1039C29.1261 14.5129 29.1662 13.9162 29.166 13.3187C29.16 10.8414 28.479 8.4218 27.2091 6.36609C25.9391 4.31037 24.1375 2.71102 22.0321 1.77049C19.9268 0.829971 17.6124 0.590568 15.382 1.08259C13.1515 1.57461 11.1054 2.77594 9.50249 4.53449C7.89961 6.29304 6.81208 8.52974 6.37757 10.9614C5.94307 13.3931 6.18113 15.9105 7.06161 18.1949C7.9421 20.4792 9.42542 22.4278 11.3238 23.7941C13.2222 25.1603 15.4503 25.8826 17.726 25.8697Z" fill="#BFBFBF"/>
<path d="M1.00582 32.499C1.26816 32.4978 1.51956 32.3844 1.70582 32.1833L9.00582 24.2042C9.09905 24.1027 9.17302 23.9822 9.22348 23.8496C9.27394 23.717 9.29991 23.5749 9.29991 23.4314C9.29991 23.2878 9.27394 23.1457 9.22348 23.0131C9.17302 22.8805 9.09905 22.76 9.00582 22.6585C8.91258 22.557 8.80189 22.4765 8.68007 22.4215C8.55824 22.3666 8.42767 22.3383 8.29582 22.3383C8.16396 22.3383 8.03339 22.3666 7.91157 22.4215C7.78975 22.4765 7.67905 22.557 7.58582 22.6585L0.295816 30.6376C0.154787 30.7898 0.0586059 30.9844 0.0195363 31.1963C-0.0195334 31.4083 0.000278115 31.6282 0.0764449 31.8279C0.152612 32.0276 0.281683 32.198 0.447203 32.3176C0.612723 32.4371 0.807192 32.5002 1.00582 32.499Z" fill="#BFBFBF"/>
</svg>
